grf
version=1
nRows=8
nColumns=28
inDegrees=no
endheader
time	ground_force_1_vx	ground_force_1_vy	ground_force_1_vz	ground_force_1_px	ground_force_1_py	ground_force_1_pz	ground_moment_1_mx	ground_moment_1_my	ground_moment_1_mz	ground_force_2_vx	ground_force_2_vy	ground_force_2_vz	ground_force_2_px	ground_force_2_py	ground_force_2_pz	ground_moment_2_mx	ground_moment_2_my	ground_moment_2_mz	ground_force_3_vx	ground_force_3_vy	ground_force_3_vz	ground_force_3_px	ground_force_3_py	ground_force_3_pz	ground_moment_3_mx	ground_moment_3_my	ground_moment_3_mz
      0.90000000	      1.98871133	     -1.35485943	   -465.49182969	    582.61659425	   -964.25208427	      1.35174430	      1.28734291	      4.65504858	   2550.71597218	      1.81371737	     -5.38425505	      0.58424134	   -692.96255222	  -1124.95541661	      0.59463702	      0.30651916	      3.96419326	  -4750.18741686	     -4.61823434	     10.08582085	    -53.67099074	    572.45074646	   -942.34405164	      1.76720476	      0.05594798	     -0.41098975	   -200.12740678
      0.91000000	      1.54988303	      3.88941456	   -469.09780214	    583.89573263	   -961.15751456	      1.34545114	      1.35745881	      4.90858858	   2689.64223667	      1.61430720	     -5.50963699	      1.08208318	    -97.60267953	  -1531.27152830	      0.29396964	      0.15418895	      1.99411617	  -2389.49640488	     -6.41531603	     10.58627069	    -65.14030861	    570.98432235	   -931.08327662	      1.74366922	      0.00788322	     -0.05790955	    -28.19848587
      0.92000000	      1.46277246	      9.89101745	   -475.36703300	    584.82595202	   -958.75718366	      1.34060106	      1.49371980	      5.40131008	   2959.62709134	      1.51558611	     -5.38587563	      1.31613040	     82.67412534	  -1560.83179126	      0.28093346	      0.09353903	      1.20973446	  -1449.59265165	     -8.65663327	     10.93025764	    -78.79810799	    576.68783576	   -924.62104422	      1.73199260	     -0.02974925	      0.21853580	    106.41385320
      0.93000000	      1.50827309	     16.14748721	   -482.89370856	    585.76785513	   -955.81196417	      1.33475067	      1.60680840	      5.81023994	   3183.69863136	      1.63024475	     -5.42698968	      0.93144248	   -141.32386505	  -1335.11611166	      0.45484679	      0.14974914	      1.93669635	  -2320.69175407	    -11.59458606	     11.46371695	    -96.17959097	    575.54821232	   -918.83488820	      1.71979132	     -0.04128272	      0.30325987	    147.66940711
      0.94000000	      2.91857339	     22.41718700	   -490.68198717	    586.28647175	   -953.24754376	      1.32980887	      1.76487045	      6.38179433	   3496.87966218	      1.79257493	     -5.26723632	      1.22729079	     -2.67087542	  -1412.54375576	      0.39917776	      0.09823388	      1.27045272	  -1522.34972351	    -15.42056714	     11.18579960	   -119.31475811	    574.47392178	   -911.82361677	      1.70509236	     -0.10157885	      0.74619081	    363.35026327
      0.95000000	      6.14782827	     29.66210381	   -498.63016069	    586.40160472	   -951.02571804	      1.32569593	      1.89786032	      6.86268744	   3760.38319254	      1.54114596	     -5.42403080	      0.49103941	   -496.14076071	  -1136.86531479	      0.59739828	      0.25112915	      3.24783777	  -3891.79767570	    -19.67979852	     11.24200296	   -146.67044561	    575.51215767	   -902.19636600	      1.68561170	     -0.08717123	      0.64035349	    311.81382328
      0.96000000	      9.56789136	     37.76482820	   -509.14421384	    586.29622994	   -948.99889160	      1.32205016	      2.02555897	      7.32444741	   4013.40279723	      1.56670196	     -5.33831472	      0.76538722	   -189.55624223	  -1327.91003932	      0.45774817	      0.15993787	      2.06846655	  -2478.58848827	    -24.56958814	     11.76380092	   -177.11843561	    575.27338634	   -900.81678678	      1.68271179	     -0.18266809	      1.34186646	    653.40864845
      0.97000000	     13.78998759	     44.58492357	   -519.58118144	    586.02745193	   -946.98999573	      1.31851959	      2.10169740	      7.59976495	   4164.26198217	      1.81170375	     -5.49110459	      0.66159568	   -454.30377628	  -1177.73590673	      0.56599003	      0.23800202	      3.07806536	  -3688.36390610	    -29.61584448	     12.99925194	   -214.50817150	    574.22921377	   -894.10303901	      1.66863225	     -0.21761485	      1.59858281	    778.41414664
